<svg width="38" height="38" viewBox="0 0 38 38" fill="none" xmlns="http://www.w3.org/2000/svg">
<path d="M8.09962 31.6667C7.37076 31.6667 6.76223 31.4226 6.27404 30.9344C5.78585 30.4462 5.54175 29.8378 5.54175 29.1092V10.4745H7.12508V29.1092C7.12508 29.3528 7.22655 29.576 7.42948 29.7789C7.63241 29.9819 7.85579 30.0833 8.09962 30.0833H26.7339V31.6667H8.09962ZM12.8496 26.9167C12.1208 26.9167 11.5122 26.6726 11.024 26.1844C10.5358 25.6962 10.2917 25.0877 10.2917 24.3588V7.30787C10.2917 6.57901 10.5358 5.97049 11.024 5.48229C11.5122 4.9941 12.1208 4.75 12.8496 4.75H29.9005C30.6294 4.75 31.2379 4.9941 31.7261 5.48229C32.2143 5.97049 32.4584 6.57901 32.4584 7.30787V24.3588C32.4584 25.0877 32.2143 25.6962 31.7261 26.1844C31.2379 26.6726 30.6294 26.9167 29.9005 26.9167H12.8496ZM21.3751 16.0162L24.5417 14.1281L27.7084 16.0162V6.33333H21.3751V16.0162Z" fill="#E2E2E2"/>
</svg>
