<svg width="48" height="48" viewBox="0 0 48 48" fill="none" xmlns="http://www.w3.org/2000/svg">
<path d="M24 22.7695C22.35 22.7695 20.9375 22.182 19.7625 21.007C18.5875 19.832 18 18.4195 18 16.7695C18 15.1195 18.5875 13.707 19.7625 12.532C20.9375 11.357 22.35 10.7695 24 10.7695C25.65 10.7695 27.0625 11.357 28.2375 12.532C29.4125 13.707 30 15.1195 30 16.7695C30 18.4195 29.4125 19.832 28.2375 21.007C27.0625 22.182 25.65 22.7695 24 22.7695ZM10 37.2315V33.939C10 33.1134 10.2403 32.3409 10.721 31.6215C11.202 30.9025 11.8488 30.3442 12.6615 29.9465C14.5488 29.0415 16.4373 28.3627 18.327 27.91C20.2167 27.4577 22.1077 27.2315 24 27.2315C25.8923 27.2315 27.7833 27.4577 29.673 27.91C31.5627 28.3627 33.4512 29.0415 35.3385 29.9465C36.1512 30.3442 36.798 30.9025 37.279 31.6215C37.7597 32.3409 38 33.1134 38 33.939V37.2315H10Z" fill="#E2E2E2"/>
</svg>
