<svg width="18" height="18" viewBox="0 0 18 18" fill="none" xmlns="http://www.w3.org/2000/svg">
<g clip-path="url(#clip0_463_6089)">
<path d="M11.0192 13.5C10.5374 13.5 10.1286 13.332 9.79256 12.996C9.45656 12.6599 9.28856 12.2509 9.28856 11.7692C9.28856 11.2874 9.45656 10.8786 9.79256 10.5426C10.1286 10.2066 10.5374 10.0386 11.0192 10.0386C11.5009 10.0386 11.9099 10.2066 12.246 10.5426C12.582 10.8786 12.75 11.2874 12.75 11.7692C12.75 12.2509 12.582 12.6599 12.246 12.996C11.9099 13.332 11.5009 13.5 11.0192 13.5ZM3.98081 16.125C3.60194 16.125 3.28125 15.9938 3.01875 15.7313C2.75625 15.4688 2.625 15.1481 2.625 14.7692V4.73082C2.625 4.35195 2.75625 4.03126 3.01875 3.76876C3.28125 3.50626 3.60194 3.37501 3.98081 3.37501H5.01919V1.78857H6.17306V3.37501H11.8558V1.78857H12.9808V3.37501H14.0192C14.3981 3.37501 14.7188 3.50626 14.9813 3.76876C15.2438 4.03126 15.375 4.35195 15.375 4.73082V14.7692C15.375 15.1481 15.2438 15.4688 14.9813 15.7313C14.7188 15.9938 14.3981 16.125 14.0192 16.125H3.98081ZM3.98081 15H14.0192C14.0769 15 14.1298 14.976 14.1778 14.9278C14.2259 14.8798 14.25 14.8269 14.25 14.7692V7.73082H3.75V14.7692C3.75 14.8269 3.77406 14.8798 3.82219 14.9278C3.87019 14.976 3.92306 15 3.98081 15ZM3.75 6.60582H14.25V4.73082C14.25 4.67307 14.2259 4.6202 14.1778 4.5722C14.1298 4.52407 14.0769 4.50001 14.0192 4.50001H3.98081C3.92306 4.50001 3.87019 4.52407 3.82219 4.5722C3.77406 4.6202 3.75 4.67307 3.75 4.73082V6.60582Z" fill="white"/>
</g>
<defs>
<clipPath id="clip0_463_6089">
<rect width="18" height="18" fill="white"/>
</clipPath>
</defs>
</svg>
